<svg xmlns="http://www.w3.org/2000/svg" xmlns:xlink="http://www.w3.org/1999/xlink" id="Layer_1" x="0px" y="0px" viewBox="0 0 70 70" style="enable-background:new 0 0 70 70;" xml:space="preserve"> <path d="M55.5,38.6L35.4,19.7c-0.2-0.2-0.6-0.2-0.9,0l-20.1,19c0,0,0,0,0,0c-0.1,0.1-0.1,0.1-0.1,0.2c0,0,0,0,0,0 c0,0.1-0.1,0.2-0.1,0.3v10.6c0,0.4,0.3,0.7,0.6,0.7s0.6-0.3,0.6-0.7v-9.9h7.7v9.9c0,0.4,0.3,0.7,0.6,0.7H40c0.4,0,0.7-0.3,0.7-0.7 V26.4l13.8,12.9v10.3c0,0.4,0.3,0.7,0.7,0.7s0.7-0.3,0.7-0.7V39.1C55.8,38.9,55.7,38.7,55.5,38.6z M39.4,38.5H24.5V31c0,0,0,0,0,0 L35,21.1l4.4,4.1V38.5z"></path> </svg>