<svg xmlns="http://www.w3.org/2000/svg" xmlns:xlink="http://www.w3.org/1999/xlink" id="Layer_1" x="0px" y="0px" viewBox="0 0 70 70" style="enable-background:new 0 0 70 70;" xml:space="preserve"> <g> <path d="M14.7,41.7c-0.3,0-0.5,0.3-0.5,0.5c0,0.3,0.3,0.5,0.5,0.5c0.1,0,3.7-0.1,8.3,0.8v3.7c0,0.3,0.2,0.5,0.5,0.5 s0.5-0.2,0.5-0.5v-3.4c3.7,0.8,8,2.4,11.7,5.2c8.7,6.7,18.5,6.9,19.4,6.9c0,0,0.1,0,0.1,0c0.3,0,0.5-0.2,0.5-0.5 c0-0.3-0.2-0.5-0.5-0.5c0,0,0,0,0,0c-0.1,0-10.1,0-18.9-6.7c-0.8-0.6-1.5-1.1-2.3-1.6c2.2-1.8,10.9-8.1,21.2-8.1 c0.3,0,0.5-0.2,0.5-0.5s-0.2-0.5-0.5-0.5c-11.1,0-20.4,7.2-22.2,8.6c-3-1.7-6.2-2.7-9.1-3.3v-7.1c2.2,3,6.2,3.4,7.7,3.4 c0.4,0,0.6,0,0.6,0c0.3,0,0.5-0.3,0.5-0.6c0-0.3-0.3-0.5-0.6-0.5c0,0-1.7,0.1-3.5-0.4c-2.4-0.6-4-2-4.8-4.1v-4.7 c2.1,2.7,5.8,2.9,6.8,2.9c0.2,0,0.3,0,0.3,0c0.3,0,0.5-0.3,0.5-0.6c0-0.3-0.3-0.5-0.6-0.5c-0.1,0-5.4,0.3-7-3.9V22 c1.9,2.3,5.2,2.3,5.5,2.3c0,0,0,0,0,0c0.3,0,0.5-0.2,0.5-0.5c0-0.3-0.2-0.5-0.5-0.5c0,0,0,0,0,0c-0.2,0-4.2-0.1-5.5-3.3v-3.5 c1.5,1.5,3.6,1.8,3.7,1.8c0,0,0,0,0.1,0c0.3,0,0.5-0.2,0.5-0.5c0-0.3-0.2-0.5-0.5-0.6c0,0-3-0.3-3.9-2.7c0,0,0,0,0,0c0,0,0,0,0,0 c0,0,0-0.1-0.1-0.1c0,0,0,0,0,0c0,0,0,0,0-0.1c0,0,0,0,0,0c0,0,0,0-0.1,0c0,0,0,0,0,0c0,0,0,0-0.1-0.1c0,0,0,0,0,0c0,0,0,0,0,0 c0,0,0,0-0.1,0c0,0-0.1,0-0.1,0c0,0,0,0,0,0c0,0,0,0,0,0c0,0-0.1,0-0.1,0c0,0-0.1,0-0.1,0c0,0,0,0,0,0c0,0,0,0,0,0c0,0,0,0-0.1,0 c0,0,0,0,0,0c0,0,0,0-0.1,0c0,0,0,0,0,0c0,0,0,0,0,0.1c0,0,0,0,0,0c0,0,0,0.1-0.1,0.1c0,0,0,0,0,0c0,0,0,0,0,0 c-0.9,2.3-3.8,2.7-3.9,2.7c-0.3,0-0.5,0.3-0.5,0.6c0,0.3,0.3,0.5,0.5,0.5c0,0,0,0,0.1,0c0.1,0,2.3-0.3,3.7-1.8V20 c-1.3,3.2-5.3,3.3-5.5,3.3c0,0,0,0,0,0c-0.3,0-0.5,0.2-0.5,0.5c0,0.3,0.2,0.5,0.5,0.5c0,0,0,0,0,0c0.3,0,3.5-0.1,5.5-2.3v4.7 c-1.6,4.2-6.8,3.9-7,3.9c-0.3,0-0.5,0.2-0.6,0.5c0,0.3,0.2,0.5,0.5,0.6c0,0,0.1,0,0.3,0c1,0,4.7-0.2,6.8-2.9v4.7 c-0.8,2.1-2.4,3.5-4.8,4.1c-1.9,0.5-3.5,0.4-3.5,0.4c-0.3,0-0.5,0.2-0.6,0.5c0,0.3,0.2,0.5,0.5,0.6c0,0,0.3,0,0.6,0 c1.6,0,5.5-0.3,7.7-3.4v6.9C18.5,41.5,14.9,41.7,14.7,41.7z"></path> <path d="M45.4,15.5c-1.9-0.3-3.8,0.5-5.1,1.9c-0.8-1.7-2.5-2.9-4.4-3.2c-2.2-0.3-4.4,0.7-5.6,2.6c-0.1,0.2-0.1,0.4,0,0.5 s0.3,0.3,0.5,0.3l0.3,0c2.3-0.2,7-0.6,8,5.2c0,0.2,0.2,0.4,0.4,0.4c0,0,0,0,0.1,0c0.2,0,0.4-0.1,0.5-0.3c2.5-5.3,7-3.7,9.1-3 l0.3,0.1c0.2,0.1,0.4,0,0.5-0.1c0.1-0.1,0.2-0.3,0.1-0.5C49.4,17.3,47.6,15.8,45.4,15.5z M39.8,21.3c-1.3-4.2-4.8-4.8-7.2-4.8 c-0.3,0-0.5,0-0.7,0c1-1,2.4-1.5,3.9-1.3c1.9,0.2,3.4,1.6,3.9,3.4c0.1,0.2,0.2,0.3,0.4,0.4c0.2,0,0.4-0.1,0.5-0.2 c1-1.6,2.8-2.5,4.7-2.2c1.4,0.2,2.7,1,3.4,2.2C46.4,18,42.4,17.2,39.8,21.3z"></path> <path d="M55,25.9l0.4-0.1c0.2,0,0.4-0.2,0.4-0.4c0.1-0.2,0-0.4-0.1-0.5c-1.9-1.8-4.6-2.3-7-1.3c-2.1,0.8-3.6,2.7-4,4.9 c-1.8-1.3-4.2-1.6-6.3-0.8c-2.4,0.9-4,3.2-4.1,5.8c0,0.2,0.1,0.4,0.3,0.5c0.2,0.1,0.4,0.1,0.5,0l0.3-0.2c2.2-1.5,6.8-4.6,11.2,0.8 c0.1,0.1,0.3,0.2,0.4,0.2c0.1,0,0.1,0,0.2,0c0.2-0.1,0.3-0.3,0.3-0.5C46.9,27.3,52.4,26.3,55,25.9z M46.4,32.8 c-1.8-1.7-3.6-2.3-5.3-2.3c-2.3,0-4.3,1.1-5.7,2c0.4-1.7,1.7-3.1,3.3-3.7c2.1-0.8,4.4-0.3,6,1.2c0.1,0.1,0.4,0.2,0.6,0.1 c0.2-0.1,0.3-0.3,0.3-0.5c0.1-2.2,1.4-4.2,3.5-5c1.6-0.7,3.5-0.5,5,0.4C51.4,25.5,46.6,26.9,46.4,32.8z"></path> </g> </svg>