<svg xmlns="http://www.w3.org/2000/svg" xmlns:xlink="http://www.w3.org/1999/xlink" id="Layer_1" x="0px" y="0px" viewBox="0 0 70 70" style="enable-background:new 0 0 70 70;" xml:space="preserve"> <path d="M35.6,11.5c-0.1-0.2-0.3-0.3-0.6-0.3c0,0,0,0,0,0c-0.2,0-0.4,0.1-0.6,0.3C33.9,12.1,21.6,26.9,22.9,38 c0.3,2.6,1.3,4.8,3.1,6.6c-0.2,0.4-0.3,0.8-0.3,1.2c0,1.4,1.1,2.6,2.6,2.6c1.4,0,2.6-1.1,2.6-2.6s-1.1-2.6-2.6-2.6 c-0.5,0-1,0.2-1.4,0.4c-1.5-1.6-2.4-3.5-2.7-5.8c-1.1-9.5,8.5-22.1,10.8-25c2.4,3,13.5,17.6,10.3,27.1c-1.2,3.6-4.4,6.1-9.5,7.5 v-6.5l4.9-4.6c0.3,0.2,0.6,0.3,1,0.3c1.2,0,2.1-0.9,2.1-2.1c0-1.2-0.9-2.1-2.1-2.1c-1.2,0-2.1,0.9-2.1,2.1c0,0.3,0.1,0.6,0.2,0.9 l-4,3.7V29.1c1.1-0.3,1.9-1.3,1.9-2.5c0-1.4-1.1-2.6-2.6-2.6s-2.6,1.1-2.6,2.6c0,1.2,0.8,2.2,1.9,2.5v10.4l-4.7-4.7 c0.2-0.3,0.2-0.6,0.2-0.9c0-1-0.8-1.8-1.8-1.8c-1,0-1.8,0.8-1.8,1.8s0.8,1.8,1.8,1.8c0.2,0,0.4,0,0.5-0.1l5.7,5.8v16.9 c0,0.4,0.3,0.7,0.6,0.7s0.6-0.3,0.6-0.7v-9.3c5.7-1.4,9.4-4.3,10.7-8.4C50.3,29.1,36.2,12.2,35.6,11.5z"></path> </svg>