<svg xmlns="http://www.w3.org/2000/svg" xmlns:xlink="http://www.w3.org/1999/xlink" id="Layer_1" x="0px" y="0px" viewBox="0 0 70 70" style="enable-background:new 0 0 70 70;" xml:space="preserve"> <style type="text/css"> .st0{stroke:#000000;stroke-width:0.2;stroke-miterlimit:10;} </style> <path d="M0.5,3C0.7,3,0.8,2.9,1,2.9V2.8C0.8,2.9,0.7,2.9,0.5,3C0.4,2.9,0.4,2.9,0.3,2.9V3C0.4,3,0.4,3,0.5,3z"></path> <path d="M1,4.2L1,4.2c-0.2,0-0.4,0-0.7,0.1v0.1C0.6,4.3,0.8,4.2,1,4.2z"></path> <g> <path class="st0" d="M21.4,38.5c-1.4,0.8-2.7,1.6-4.1,2.3v0.1C18.7,40.2,20.1,39.4,21.4,38.5c4.7-2.8,9.1-6.1,13.2-9.9 c-0.7,0.6-1.4,1.2-2.2,1.8C28.9,33.4,25.3,36.1,21.4,38.5z"></path> <path class="st0" d="M48.8,21.1c-0.2,0-0.4-0.1-0.7-0.1c-3.6-0.4-6.8,1.5-9.7,3.9c-0.1,0.1-0.1,0.1-0.2,0.2l-0.5,0.5 c-0.1,0.1-0.3,0.2-0.4,0.4c3.2-2.8,6.7-5.2,10.7-4.8C48.3,21.2,48.5,21.2,48.8,21.1c1.1,0.3,2.1,0.6,3.1,1c0.3,0.1,0.6,0.2,0.8,0.3 v-0.1c-0.3-0.1-0.5-0.2-0.8-0.3C50.9,21.7,49.8,21.3,48.8,21.1z"></path> <path class="st0" d="M48.7,25.2c-1-0.3-2.1-0.6-3.2-0.8c-0.2,0-0.4-0.1-0.6-0.1c-5.1-0.4-9.4,3.5-13.2,6.9l-0.2,0.2 c-4.1,3.6-8.3,6.8-12.7,9.4c-0.5,0.3-1,0.6-1.5,0.8v0.1c0.5-0.3,1-0.6,1.5-0.9c4.4-2.6,8.7-5.8,12.7-9.4l0.2-0.2 c3.8-3.4,8.1-7.3,13.1-6.9c0.2,0,0.4,0,0.6,0.1C46.6,24.7,47.6,25,48.7,25.2c1.1,0.4,2.3,0.8,3.5,0.9c0.2,0,0.4,0,0.5,0v-0.1 c-0.2,0-0.3,0-0.5,0C51,25.9,49.8,25.6,48.7,25.2z"></path> <path class="st0" d="M48.9,29.1c-1.2-0.1-2.3-0.4-3.4-0.7c-1-0.3-2.1-0.6-3.2-0.7c-0.2,0-0.4,0-0.6,0c-5-0.2-9.4,3.5-13.2,6.8 l-0.1,0.1c-3.7,3.1-7.4,5.8-11.1,8.1v0.1c3.7-2.3,7.4-5,11.1-8.1l0.1-0.1c3.8-3.3,8.1-7,13.1-6.7c0.2,0,0.4,0,0.6,0 c1.1,0.1,2.2,0.4,3.2,0.7C46.6,28.8,47.7,29.1,48.9,29.1c0.2,0.1,0.5,0.1,0.8,0.1c1.1,0,2.1-0.2,3.1-0.4v-0.1 c-1,0.3-2.1,0.5-3.1,0.4C49.4,29.1,49.1,29.1,48.9,29.1z"></path> <path class="st0" d="M45.5,32.2c-1.1-0.1-2.2-0.3-3.3-0.6c-1.1-0.2-2.2-0.5-3.3-0.6c-0.2,0-0.4,0-0.6,0c-5-0.1-9.3,3.5-13.1,6.6 c-2.8,2.2-5.4,4.2-8,5.9v0.1c2.6-1.7,5.3-3.7,8-5.9c3.8-3.1,8.1-6.6,13.1-6.5c0.2,0,0.4,0,0.6,0c1.1,0.1,2.2,0.3,3.3,0.6 C43.3,31.9,44.4,32.2,45.5,32.2c0.2,0.1,0.5,0.1,0.7,0.1c2.3,0,4.4-0.7,6.5-1.7v-0.1c-2.1,1-4.2,1.7-6.5,1.7 C46,32.2,45.8,32.2,45.5,32.2z"></path> <path class="st0" d="M42.2,35.2c-1-0.1-2.1-0.2-3.1-0.4c-1.1-0.2-2.2-0.4-3.3-0.4c-0.2,0-0.4,0-0.6,0c-5,0.1-9.4,3.5-13,6.3 c-1.7,1.3-3.3,2.5-4.9,3.6v0.1c1.6-1.1,3.2-2.3,4.9-3.6c3.6-2.7,8-6.1,12.9-6.2c0.2,0,0.4,0,0.6,0c1.1,0,2.3,0.2,3.3,0.4 C40.1,35,41.1,35.2,42.2,35.2c0.2,0.1,0.5,0.1,0.7,0.1c3.5,0,6.7-1.7,9.9-3.3v-0.1c-3.1,1.6-6.4,3.3-9.9,3.3 C42.7,35.2,42.4,35.2,42.2,35.2z"></path> <path class="st0" d="M49.7,35c-3.3,1.6-6.6,3.2-10.2,3.3c-0.2,0-0.5,0-0.7,0c-1,0-2-0.2-2.9-0.3c-1.1-0.2-2.3-0.3-3.4-0.3 c-0.2,0-0.4,0-0.6,0c-4.9,0.3-9.5,3.6-12.8,6c-0.6,0.4-1.2,0.8-1.8,1.3V45c0.6-0.5,1.3-0.9,1.9-1.3c3.3-2.4,7.9-5.7,12.8-6 c0.2,0,0.4,0,0.6,0c1.2,0,2.3,0.2,3.4,0.3c0.9,0.1,1.9,0.3,2.9,0.3c0.2,0,0.5,0,0.7,0C43.1,38.3,46.5,36.6,49.7,35 c0.4-0.1,0.8-0.3,1.2-0.5c0.6-0.3,1.2-0.6,1.8-0.8v-0.1c-0.6,0.3-1.3,0.6-1.9,0.8C50.5,34.6,50.1,34.8,49.7,35z"></path> <path class="st0" d="M50.2,38.9c-2.1,0.5-4.2,1.3-6,2c-0.3,0.1-0.7,0.3-1,0.4l-0.4,0.2c-3.5,1.4-6.5,2.6-9.8,2.7 c-1.1,0.1-2.2,0-3.3-0.1c-1.2-0.1-2.4-0.1-3.6,0c-3.1,0.2-6.1,1.4-8.9,2.9v0.1c2.8-1.5,5.8-2.7,8.9-2.9c1.2-0.1,2.4,0,3.6,0 c1.1,0.1,2.2,0.1,3.3,0.1c3.3-0.2,6.2-1.3,9.8-2.7l0.4-0.2c0.3-0.1,0.7-0.3,1-0.4C46.1,40.3,48.1,39.5,50.2,38.9 c0.7-0.1,1.3-0.2,2-0.3c0.2,0,0.4,0,0.5,0v-0.1c-0.2,0-0.4,0-0.5,0C51.5,38.7,50.9,38.8,50.2,38.9z"></path> <path class="st0" d="M49.1,42c-0.7,0.1-1.4,0.2-2,0.3c-1.9,0.4-3.8,1-6,1.8c-0.4,0.1-0.8,0.3-1.2,0.4l-0.2,0.1 c-3,1.1-6.3,2.3-9.7,2.6c-1.1,0.1-2.2,0.1-3.2,0.1c-1.2,0-2.4,0-3.6,0.1c-2,0.2-4,0.8-5.8,1.5V49c1.9-0.7,3.8-1.3,5.9-1.5 c1.2-0.1,2.4-0.1,3.6-0.1c1.1,0,2.1,0,3.2-0.1c3.5-0.3,6.8-1.5,9.8-2.6l0.2-0.1c0.4-0.1,0.8-0.3,1.2-0.4c2.2-0.8,4.1-1.4,6-1.8 C47.7,42.3,48.4,42.2,49.1,42c0.5,0,1,0,1.6,0c0.7,0,1.4,0.1,2.1,0.1v-0.1C52.1,42,51.4,42,50.7,42C50.1,42,49.6,42,49.1,42z"></path> <path class="st0" d="M49.2,45.4c-0.6,0-1.1,0-1.7,0c-0.6,0-1.1,0-1.6,0.1c-0.7,0.1-1.4,0.2-2,0.3c-2.1,0.4-4.1,1-6,1.7 c-0.5,0.2-1,0.3-1.5,0.5c-3.1,1-6.4,2.1-9.7,2.5c-1.1,0.1-2.1,0.2-3.1,0.2c-1.2,0-2.4,0.1-3.6,0.3c-0.9,0.1-1.9,0.3-2.8,0.5v0.1 c0.9-0.2,1.9-0.4,2.8-0.6c1.2-0.2,2.4-0.2,3.6-0.3c1,0,2.1-0.1,3.1-0.2c3.4-0.4,6.6-1.4,9.7-2.5c0.5-0.2,1-0.3,1.5-0.5 c1.9-0.6,3.9-1.2,6-1.6c0.6-0.1,1.2-0.2,2-0.3c0.5,0,1-0.1,1.6-0.1C48.1,45.5,48.7,45.5,49.2,45.4c0.8,0.1,1.5,0.1,2.2,0.1 c0.5,0,0.9-0.1,1.3-0.2v-0.1c-0.4,0.1-0.8,0.2-1.3,0.2C50.7,45.5,50,45.5,49.2,45.4z"></path> <path class="st0" d="M51,47.5c-0.3,0.2-0.6,0.4-1,0.6c-0.5,0.2-1,0.5-1.8,0.6c-0.9,0.1-1.9,0.1-2.9,0.1c-0.3,0-0.6,0-1,0 c-0.6,0-1.1,0-1.6,0.1c-0.7,0.1-1.4,0.1-2,0.2c-2.1,0.4-4.2,1-6,1.5c-0.5,0.1-1,0.3-1.5,0.4l-0.3,0.1c-1.6,0.5-3.3,0.9-5,1.4h0.4 c1.6-0.4,3.1-0.8,4.6-1.3l0.3-0.1c0.5-0.1,1-0.3,1.5-0.4c1.8-0.5,3.9-1.1,6-1.5c0.6-0.1,1.2-0.2,1.9-0.2c0.5,0,1,0,1.6-0.1 c0.3,0,0.6,0,1,0c1,0,2,0,2.9-0.1c0.8-0.1,1.3-0.4,1.8-0.6C50.4,48,50.7,47.8,51,47.5c0.4-0.2,0.8-0.4,1.2-0.6 c0.2-0.1,0.3-0.1,0.5-0.2v-0.1c-0.2,0.1-0.4,0.1-0.6,0.2C51.7,47,51.4,47.3,51,47.5z"></path> <path class="st0" d="M49.3,49.2c-0.2,0.1-0.4,0.2-0.6,0.3c-0.5,0.3-0.9,0.6-1.3,1c-0.2,0.2-0.5,0.4-0.7,0.6c-0.5,0.4-1,0.7-1.7,0.9 c-1.1,0.3-2.3,0.3-3.5,0.3l-0.3,0c-0.6,0-1.1,0-1.6,0c-0.6,0-1.1,0.1-1.6,0.1h0.8c0.2,0,0.5,0,0.8-0.1c0.5,0,1,0,1.6,0l0.3,0 c1.3,0,2.5,0,3.5-0.3c0.1,0,0.3-0.1,0.4-0.1c0.1-0.1,0.2-0.1,0.3-0.2c0.2-0.1,0.4-0.2,0.6-0.3c0.1-0.1,0.2-0.2,0.4-0.3 c0.3-0.2,0.5-0.4,0.7-0.6c0.4-0.4,0.8-0.7,1.2-1C48.9,49.4,49.1,49.4,49.3,49.2c0.6-0.2,1.3-0.4,2.1-0.6c0.4-0.1,0.8-0.2,1.3-0.3 v-0.1c-0.5,0.1-0.9,0.2-1.3,0.3C50.6,48.7,49.9,48.9,49.3,49.2z"></path> <path class="st0" d="M47.9,50.8c-0.5,0.2-1,0.4-1.4,0.6c-0.3,0.2-0.6,0.4-0.9,0.5c-0.1,0.1-0.2,0.1-0.2,0.2 c-0.2,0.1-0.3,0.2-0.4,0.4H45c0.1-0.1,0.2-0.2,0.3-0.3c0.2-0.1,0.4-0.2,0.6-0.4C46.4,51.5,47.1,51.2,47.9,50.8 c0.5-0.1,1-0.2,1.5-0.4c1.1-0.3,2.3-0.6,3.4-0.8v-0.1c-1.1,0.3-2.3,0.5-3.4,0.8C48.8,50.5,48.3,50.7,47.9,50.8z"></path> <path class="st0" d="M45.8,51.7c-0.1,0.1-0.2,0.1-0.3,0.2c0.4-0.1,0.7-0.3,0.9-0.5C46.2,51.5,46,51.6,45.8,51.7z"></path> <path class="st0" d="M34.6,28.6C34.6,28.6,34.6,28.6,34.6,28.6c0.9-0.8,1.9-1.7,2.8-2.6c-0.8,0.7-1.6,1.5-2.4,2.2L34.6,28.6z"></path> <path class="st0" d="M51.3,17.8c-5.2-0.6-9.4,3.6-13.2,7.2l-0.5,0.5c-0.6,0.5-1.1,1.1-1.7,1.6c0.8-0.7,1.6-1.4,2.4-2.1 c3.7-3.6,7.9-7.7,12.9-7c0.5,0.1,1,0.2,1.4,0.3v-0.1C52.3,18,51.8,17.9,51.3,17.8z"></path> <path class="st0" d="M37.6,25.5l0.5-0.5c3.8-3.7,8.1-7.9,13.3-7.3c0.5,0.1,0.9,0.2,1.4,0.3v-0.1c-0.5-0.1-0.9-0.2-1.4-0.3 c-5.3-0.6-9.6,3.6-13.4,7.3L37.6,25.5C31.5,31.2,24.7,36,17.3,39.7v0.1C24.7,36.2,31.6,31.3,37.6,25.5z"></path> <path class="st0" d="M38.1,25l-0.5,0.5c-6,5.9-12.9,10.7-20.4,14.3v0.1c1.2-0.6,2.3-1.2,3.5-1.8c5.4-3,10.4-6.6,14.9-10.7 c0.1-0.1,0.2-0.2,0.3-0.3c0.6-0.5,1.1-1,1.7-1.6L38.1,25c3.8-3.6,8.1-7.8,13.3-7.2c0.5,0.1,0.9,0.2,1.4,0.3V18 c-0.5-0.1-0.9-0.2-1.4-0.3C46.1,17.1,41.9,21.3,38.1,25z"></path> <path class="st0" d="M34.9,28.1l-0.4,0.4c-0.7,0.7-1.4,1.3-2.1,1.9c0.7-0.6,1.5-1.2,2.2-1.8c0,0,0,0,0,0L34.9,28.1 c0.8-0.7,1.6-1.4,2.4-2.1c0.1-0.1,0.3-0.2,0.4-0.4l0.5-0.5c0.1-0.1,0.1-0.1,0.2-0.2c-0.8,0.7-1.6,1.4-2.4,2.1 c-0.1,0.1-0.2,0.2-0.3,0.3C35.4,27.7,35.2,27.9,34.9,28.1z"></path> <path class="st0" d="M36,27.1c-0.1,0.1-0.2,0.2-0.3,0.3C35.8,27.3,35.9,27.2,36,27.1z"></path> <path class="st0" d="M47.4,37.8c-0.3,0.1-0.6,0.3-0.9,0.4c-3.3,1.5-6.7,3-10.3,3.1c-1.1,0-2.3-0.1-3.4-0.2 c-1.2-0.1-2.4-0.2-3.6-0.2c-4.3,0.2-8.1,2.3-12,4.9V46c3.9-2.5,7.7-4.7,12-4.9c1.2-0.1,2.4,0.1,3.5,0.2c1.1,0.1,2.2,0.2,3.4,0.2 c3.6-0.1,7.1-1.6,10.4-3.1c0.3-0.1,0.6-0.3,0.9-0.4c1.7-0.7,3.5-1.5,5.3-2v-0.1C50.9,36.3,49.1,37.1,47.4,37.8z"></path> <path class="st0" d="M46.4,38.1c-3.3,1.5-6.7,3-10.2,3.1c-1.1,0-2.3-0.1-3.3-0.2c-1.2-0.1-2.4-0.2-3.6-0.2c-4.3,0.2-8.1,2.3-12,4.8 v0.2c3.8-2.5,7.7-4.7,12-4.9c1.2-0.1,2.4,0.1,3.6,0.2c1.1,0.1,2.2,0.2,3.4,0.2c3.6-0.1,7-1.6,10.3-3.1c0.3-0.1,0.6-0.3,0.9-0.4 c1.7-0.8,3.5-1.5,5.4-2v-0.1c-1.9,0.5-3.7,1.3-5.4,2C47,37.8,46.7,37.9,46.4,38.1z"></path> <path class="st0" d="M29.2,41c1.2-0.1,2.4,0.1,3.6,0.2c1.1,0.1,2.2,0.2,3.4,0.2c3.6-0.1,7-1.6,10.3-3.1c0.3-0.1,0.6-0.3,0.9-0.4 c1.7-0.8,3.5-1.5,5.3-2v-0.1c-1.9,0.5-3.7,1.3-5.4,2c-0.3,0.1-0.6,0.3-0.9,0.4c-3.3,1.5-6.7,3-10.3,3.1c-1.1,0-2.3-0.1-3.4-0.2 C31.6,41,30.4,40.9,29.2,41c-4.3,0.1-8.1,2.2-12,4.8v0.1C21.1,43.3,25,41.2,29.2,41z"></path> </g> <path d="M53,53.6H17c-0.4,0-0.6-0.3-0.6-0.7V17c0-0.4,0.3-0.6,0.6-0.6H53c0.4,0,0.7,0.3,0.7,0.6V53C53.6,53.3,53.3,53.6,53,53.6z M17.7,52.3h34.6V17.7H17.7V52.3z"></path> </svg>