<svg xmlns="http://www.w3.org/2000/svg" xmlns:xlink="http://www.w3.org/1999/xlink" id="Layer_1" x="0px" y="0px" viewBox="0 0 70 70" style="enable-background:new 0 0 70 70;" xml:space="preserve"> <style type="text/css"> .st0{stroke:#000000;stroke-width:0.5;stroke-miterlimit:10;} .st1{stroke:#000000;stroke-width:0.25;stroke-miterlimit:10;} </style> <path d="M0.5,3C0.7,3,0.8,2.9,1,2.9V2.8C0.8,2.9,0.7,2.9,0.5,3C0.4,2.9,0.4,2.9,0.3,2.9V3C0.4,3,0.4,3,0.5,3z"></path> <path d="M1,4.2L1,4.2c-0.2,0-0.4,0-0.7,0.1v0.1C0.6,4.3,0.8,4.2,1,4.2z"></path> <path d="M53,53.6H17c-0.4,0-0.6-0.3-0.6-0.7V17c0-0.4,0.3-0.6,0.6-0.6h36c0.4,0,0.7,0.3,0.7,0.6v36C53.5,53.3,53.2,53.6,53,53.6z M17.7,52.3h34.6V17.7H17.7V52.3z"></path> <path d="M31.7,16.8h-0.4c-0.3,0.1-0.6,0.3-0.9,0.4h0.5C31.1,17,31.4,16.9,31.7,16.8z"></path> <path class="st0" d="M29.3,52.5h0.5c-0.5-0.2-1.1-0.5-1.6-0.8h-0.4C28.3,52,28.8,52.2,29.3,52.5z"></path> <path d="M41.5,52.5h0.9c0.3-0.2,0.5-0.5,0.8-0.8h-0.8C42,52,41.7,52.3,41.5,52.5z"></path> <path d="M45.4,16.7h-0.3c-0.1,0.1-0.2,0.3-0.4,0.4h0.3C45.2,17,45.3,16.9,45.4,16.7z"></path> <path d="M49.9,16.8H49c-0.1,0.1-0.3,0.3-0.4,0.4h0.8C49.6,17,49.8,16.9,49.9,16.8z"></path> <path d="M50.9,39.9c-0.3,0.7-0.7,1.5-1.1,2.3c-2,4.3-5.4,7.7-7.4,9.6h0.8c2.1-2,5.2-5.3,7.1-9.3c0.4-0.8,0.7-1.5,1.1-2.3 c0.3-0.7,0.6-1.3,0.9-2v-1.3C51.8,37.8,51.3,38.9,50.9,39.9z"></path> <path class="st0" d="M33,48.1c0.8,0,1.7-0.1,2.5-0.3c5.3-1.4,9.4-8.5,13.1-14.7c1.3-2.2,2.5-4.3,3.7-6.1v-0.3 c-1.3,1.8-2.6,4-3.9,6.3c-3.6,6.2-7.7,13.2-13,14.6c-6.9,1.8-13.7-4.6-17.7-9.5v0.3C21.3,42.7,27,48.1,33,48.1z"></path> <path d="M21.7,28c2.4,3.6,4.8,7,8,7c3.9,0,7.8-4.5,12.3-9.8c2.4-2.8,4.9-5.7,7.5-8.1h-0.8c-2.5,2.3-4.8,5-7.1,7.7 c-4.2,4.9-8.2,9.6-11.8,9.6c-2.9,0-5.2-3.3-7.5-6.7c-1.4-2.1-2.8-4.2-4.5-5.6v0.8C19.2,24.3,20.4,26.2,21.7,28z"></path> <path class="st0" d="M22.1,19.9c-0.6,1.2,0.1,3.1,2.5,6.6c1.8,2.7,3.8,4,5.8,4s4-1.4,6-4c1.2-1.7,3.1-3.5,5-5.5 c1.3-1.3,2.5-2.5,3.6-3.8h-0.3c-1.1,1.2-2.3,2.4-3.5,3.6c-2,2-3.8,3.8-5.1,5.5c-1.9,2.6-3.9,4-5.9,4c-1.9,0-3.8-1.3-5.6-4 c-2.3-3.4-3-5.2-2.5-6.4c0.4-0.9,1.6-1.4,3.8-1.6c1.8-0.2,3.4-0.6,4.8-1.2h-0.5c-1.5,0.6-3,0.8-4.4,1C23.7,18.4,22.5,18.9,22.1,19.9 z"></path> <path class="st0" d="M31,27.5c1.5,0,3.2-1.5,4.4-4.1c0.8-1.8,0.6-2.8,0.2-3.4c-0.5-0.8-1.4-1-2-1c-0.2,0-0.4,0-0.6,0.1 c-3,0.9-4.7,2-5.3,3.4c-0.3,0.9-0.1,2,0.6,3.2C29.1,26.9,30,27.5,31,27.5z M27.8,22.6c0.5-1.3,2.2-2.5,5.1-3.3 c0.2-0.1,0.4-0.1,0.6-0.1c0.6,0,1.4,0.3,1.9,1c0.3,0.5,0.6,1.5-0.2,3.2c-1.1,2.4-2.7,3.9-4.2,3.9c-0.9,0-1.8-0.6-2.6-1.7 C27.7,24.5,27.5,23.5,27.8,22.6z"></path> <path d="M28.7,41.8c6.2,1.3,8.5-2,14-9.9c1.4-2.1,3.1-4.4,5.1-7.1c1.5-2.1,3-3.6,4.5-4.8v-0.7c-1.6,1.2-3.3,2.9-5,5.2 c-2,2.7-3.6,5-5.1,7.1c-5.5,7.9-7.6,10.9-13.4,9.7c-3.5-0.7-6.7-4.6-9.8-8.4c-0.4-0.5-0.9-1.1-1.3-1.6v0.9c0.3,0.3,0.6,0.7,0.9,1 C21.7,37,25,41,28.7,41.8z"></path> <path class="st0" d="M18.8,44.1c-0.4-0.4-0.8-0.8-1.1-1.1v0.3c0.3,0.3,0.6,0.6,1,1c2.2,2.3,5.3,5.4,9.2,7.5h0.4 C24.2,49.6,21.1,46.4,18.8,44.1z"></path> <path class="st1" d="M51,51.7c-0.3,0.3-0.6,0.5-0.9,0.8h0.3c0.3-0.2,0.5-0.5,0.8-0.8c0.3-0.3,0.7-0.7,1-1v-0.3 C51.8,50.9,51.4,51.3,51,51.7z"></path> </svg>