<svg xmlns="http://www.w3.org/2000/svg" xmlns:xlink="http://www.w3.org/1999/xlink" id="Layer_1" x="0px" y="0px" viewBox="0 0 70 70" style="enable-background:new 0 0 70 70;" xml:space="preserve"> <path d="M16.1,58.8h19c0.3,0,0.6-0.3,0.6-0.6v-4.8c0-0.3-0.3-0.6-0.6-0.6h-1.8L31,23.4c0-0.3-0.3-0.5-0.6-0.5h-0.7v-4.6h1.4 c0.3,0,0.6-0.3,0.6-0.6v-0.3c-0.1-3.3-2.9-6-6.2-5.9c-3.2,0.1-5.8,2.7-5.9,5.9v0.3c0,0.3,0.3,0.6,0.6,0.6h1.4v4.6H21 c-0.3,0-0.6,0.2-0.6,0.5L18,52.9h-1.9c-0.3,0-0.6,0.3-0.6,0.6v4.8C15.6,58.6,15.8,58.8,16.1,58.8z M20.8,17c0.2-2.7,2.5-4.7,5.2-4.6 c2.5,0.1,4.4,2.1,4.6,4.6H20.8L20.8,17z M28.6,18.2v4.6h-5.9v-4.6H28.6z M21.4,24h8.4l2.3,28.9h-3.6v-5.3c0-1.6-1.3-2.9-2.9-2.9 s-2.9,1.3-2.9,2.9v5.3h-3.6L21.4,24z M27.4,47.6v5.3h-3.5v-5.3c0-1,0.8-1.8,1.8-1.8C26.6,45.8,27.4,46.6,27.4,47.6L27.4,47.6z M16.7,54.1h17.9v3.6H16.7V54.1z"></path> <path d="M39.8,25.9c0.3,0,0.5-0.2,0.6-0.4c0.1-0.3-0.1-0.6-0.4-0.7l-0.2-0.1l-6.5-2.8v-2.7l6.5-2.8l0.2-0.1c0.3-0.1,0.5-0.4,0.4-0.7 s-0.4-0.5-0.7-0.4l-0.1,0l-7,3c-0.2,0.1-0.4,0.3-0.4,0.6v3.5c0,0.3,0.2,0.5,0.4,0.6l7,3C39.6,25.9,39.7,25.9,39.8,25.9z"></path> </svg>