<svg xmlns="http://www.w3.org/2000/svg" xmlns:xlink="http://www.w3.org/1999/xlink" id="Layer_1" x="0px" y="0px" viewBox="0 0 70 70" style="enable-background:new 0 0 70 70;" xml:space="preserve"> <path d="M35,55.4c-0.2,0-0.3-0.1-0.4-0.2L17.6,40c-3.6-3.3-5.6-7.9-5.6-12.7c0-3.5,1.4-6.9,3.9-9.3c2.5-2.4,5.8-3.8,9.2-3.8 s6.7,1.3,9.2,3.8l0.5,0.5c0.2,0.2,0.3,0.2,0.5,0l0.4-0.4c2.6-2.4,5.8-3.8,9.3-3.8c3.5,0,6.8,1.3,9.3,3.8c2.4,2.6,3.8,5.8,3.8,9.3 c0,4.8-2,9.4-5.6,12.6l-17,15.2C35.3,55.3,35.2,55.4,35,55.4z M25.1,15.5c-3.1,0-6,1.2-8.4,3.4c-2.2,2.1-3.5,5.2-3.5,8.3 c0,4.4,1.9,8.8,5.2,11.7L35,53.8L51.6,39c3.3-2.9,5.2-7.2,5.2-11.6c0-3.1-1.2-6-3.4-8.4c-2.2-2.2-5.2-3.4-8.3-3.4 c-3.1,0-6,1.2-8.4,3.4l-0.4,0.4c-0.7,0.7-1.7,0.7-2.3,0L33.4,19C31.1,16.8,28.2,15.5,25.1,15.5z"></path> <path d="M35,48.6c-0.2,0-0.3-0.1-0.4-0.2L21,36.3c-2.5-2.4-3.9-5.6-3.9-8.9c0-2.1,0.8-4.1,2.3-5.6c1.6-1.6,3.5-2.4,5.7-2.4 c2.2,0,4.1,0.8,5.7,2.3l4.1,4.1c0.2,0.2,0.3,0.2,0.5,0l4.1-4.1c1.4-1.5,3.3-2.3,5.6-2.3c2,0,4,0.8,5.6,2.4c1.6,1.6,2.4,3.5,2.4,5.7 c0,3.3-1.4,6.5-3.9,8.8L35.4,48.4C35.3,48.5,35.2,48.6,35,48.6z M25,20.8c-1.8,0-3.4,0.7-4.7,2c-1.2,1.2-1.9,2.9-1.9,4.6 c0,2.9,1.3,5.8,3.5,7.9L35,47l13.2-11.7c2.2-2,3.5-4.9,3.5-7.8c0-1.8-0.7-3.4-2-4.7c-1.3-1.3-2.9-2-4.6-2c-1.9,0-3.5,0.7-4.6,1.9 l-4.1,4.1c-0.7,0.7-1.7,0.7-2.3,0l-4.1-4.1C28.5,21.4,26.9,20.8,25,20.8z"></path> <path d="M35,41.7c-0.2,0-0.3-0.1-0.4-0.2l-10.1-9.1c0,0,0,0,0,0c-1.5-1.4-2.2-3.2-2.1-5.2c0-0.7,0.3-1.4,0.8-1.9c1.2-1.1,3-1,4,0 l7.7,7.8c0.2,0.2,0.3,0.2,0.5,0l7.7-7.7c1.1-1.1,2.9-1.1,3.9,0c0.6,0.7,0.8,1.3,0.8,2.1c0,1.9-0.8,3.7-2.2,5l-10.1,9.1 C35.3,41.6,35.1,41.7,35,41.7z M25.3,31.4l9.7,8.7l9.7-8.7c1.1-1.1,1.8-2.5,1.8-4c0-0.4-0.1-0.8-0.5-1.2c-0.5-0.5-1.5-0.5-2,0.1 L36.2,34c-0.7,0.7-1.7,0.7-2.3,0l-7.7-7.8c-0.6-0.6-1.6-0.5-2.2,0c-0.3,0.3-0.4,0.6-0.4,1C23.5,28.9,24.1,30.3,25.3,31.4z"></path> </svg>